# xmcd
#
# Track frame offsets:
#	150
#	21932
#	38472
#	55520
#	65627
#	80729
#	97903
#	113517
#	126038
#	143052
#	156767
#	169253
#	184010
#	204249
#
# Disc length: 2963 seconds
#
# Revision: 0
# Processed by: cddbd v1.5.1PL2 Copyright (c) Steve Scherf et al.
# Submitted via: dBpowerAMP V4.0
#
DISCID=ad0b910e
DTITLE=Chove y Zeferino - Burgos mi Tierra
DYEAR=1900
DGENRE=
TTITLE0=Burgos mi tierra
TTITLE1=Juan y Lupe Barrera
TTITLE2=Fuentes de León
TTITLE3=Llegando a Burgos
TTITLE4=Por las orillas del agua
TTITLE5=Cancion Mixteca
TTITLE6=Mi ranchito
TTITLE7=De Burgos a San fernando
TTITLE8=Paso del  NOrte
TTITLE9=Con tu Imagen
TTITLE10=Los Caeacoles
TTITLE11=El Cable
TTITLE12=Amancio Garza
TTITLE13=Los dos catanes
EXTD=
EXTT0=
EXTT1=
EXTT2=
EXTT3=
EXTT4=
EXTT5=
EXTT6=
EXTT7=
EXTT8=
EXTT9=
EXTT10=
EXTT11=
EXTT12=
EXTT13=
PLAYORDER=
